<svg xmlns="http://www.w3.org/2000/svg" width="220" height="220" viewBox="0 0 220 220" fill="none">
  <rect width="220" height="220" fill="#0A1626"/>
  <g opacity="0.22" stroke="#8BC6FF" stroke-width="1">
    <path d="M10 30C40 15 80 18 110 30C145 44 185 40 210 22"/>
    <path d="M0 84C22 68 58 70 90 84C128 100 168 98 220 74"/>
    <path d="M6 132C30 114 66 118 102 132C140 148 178 144 214 128"/>
    <path d="M2 188C30 166 70 170 112 188C150 204 188 200 218 180"/>
  </g>
  <g opacity="0.28" fill="#F2C66D">
    <circle cx="32" cy="44" r="1.8"/>
    <circle cx="92" cy="72" r="1.4"/>
    <circle cx="146" cy="38" r="1.2"/>
    <circle cx="198" cy="102" r="1.5"/>
    <circle cx="44" cy="164" r="1.3"/>
    <circle cx="128" cy="176" r="1.6"/>
    <circle cx="182" cy="152" r="1.2"/>
  </g>
</svg>
