<svg xmlns="http://www.w3.org/2000/svg" width="1600" height="1600" viewBox="0 0 1600 1600" fill="none">
  <rect width="1600" height="1600" fill="transparent"/>
  <g opacity="0.18">
    <ellipse cx="480" cy="520" rx="360" ry="120" fill="#D3B39A"/>
    <ellipse cx="940" cy="620" rx="460" ry="150" fill="#9D8372"/>
    <ellipse cx="1280" cy="450" rx="300" ry="100" fill="#C9B2A1"/>
  </g>
  <g opacity="0.2" stroke="#E6C6AE" stroke-width="16" stroke-linecap="round">
    <path d="M90 700c188-52 342-70 502-34 148 34 296 36 456-14 142-44 290-46 460-6"/>
    <path d="M120 900c160-38 332-46 502-14 162 30 306 28 446-8 146-38 300-38 438-2"/>
    <path d="M200 1080c154-28 292-28 428-4 150 28 310 28 484-2 120-22 240-22 360-2"/>
  </g>
  <g opacity="0.16" fill="#4D3A33">
    <circle cx="280" cy="860" r="18"/>
    <circle cx="540" cy="770" r="12"/>
    <circle cx="1110" cy="860" r="14"/>
    <circle cx="1370" cy="760" r="10"/>
  </g>
</svg>